<!-- Created with PixiEditor (https://pixieditor.net) -->
<svg version="1.1" viewBox="0 0 512 512" xmlns="http://www.w3.org/2000/svg">
  <path d="" fill-rule="nonzero" transform="matrix(1, 0, 0, 1, 0, 0)" fill="#ffffff" fill-opacity="0" stroke="#000000" stroke-width="1" stroke-linecap="round" stroke-linejoin="round" opacity="1" id="Path" />
  <g opacity="1" id="ColorPicker">
    <ellipse cx="255.9999771118164" cy="255.5" rx="239.58928660470644" ry="239.58928660470588" transform="matrix(1, 0, 0, 1, 0, 0)" fill="#ffffff" fill-opacity="1" stroke="#ffffff" stroke-width="0" opacity="1" id="Ellipse" />
    <g opacity="1" id="Logo">
      <path d="M420.809 61.0221C416.43 63.8751 409.289 69.4672 401.038 76.2505C392.788 83.0339 383.43 91.0084 374.619 98.6264C365.808 106.244 357.544 113.506 351.483 118.863C345.422 124.22 341.564 127.672 341.564 127.672C341.564 127.672 340.752 126.273 339.116 124.455C337.48 122.637 335.02 120.4 331.725 118.724C328.429 117.049 324.298 115.935 319.319 116.363C314.34 116.791 308.514 118.761 301.827 123.253C295.141 127.745 291.536 132.353 289.888 136.74C288.24 141.126 288.55 145.29 289.696 148.893C290.842 152.496 292.824 155.537 294.519 157.678C296.214 159.818 297.623 161.058 297.623 161.058C297.623 161.058 289.369 167.407 276.823 177.103C264.276 186.799 247.437 199.843 230.266 213.233C213.095 226.624 195.592 240.361 181.718 251.444C167.844 262.527 157.599 270.956 154.944 273.73C152.289 276.504 149.808 280.56 147.368 285.254C144.929 289.947 142.531 295.277 140.044 300.597C137.558 305.917 134.982 311.227 132.186 315.881C129.389 320.534 126.373 324.532 123.005 327.226C123.005 327.226 121.758 328.938 119.859 331.563C117.96 334.188 115.408 337.725 112.798 341.376C110.187 345.027 107.519 348.792 105.387 351.871C103.255 354.95 101.66 357.344 101.194 358.252C100.703 359.212 100.438 360.251 100.317 361.269C100.196 362.288 100.219 363.286 100.303 364.164C100.387 365.042 100.658 365.785 100.658 366.338C100.658 368.991 101.194 370.053 101.194 370.053C101.194 370.053 465.201 65.7655 464.698 65.4639C464.195 65.1623 463.019 64.8814 460.275 63.5326C457.532 62.1838 453.692 60.5042 449.304 59.1813C444.917 57.8584 439.982 56.8921 435.049 56.9698C430.117 57.0475 425.187 58.1691 420.809 61.0221Z" fill-rule="nonzero" transform="matrix(1, 0, 0, 1, 0, 0)" fill="#adb316" fill-opacity="1" stroke="#000000" stroke-width="16" stroke-linecap="round" stroke-linejoin="round" opacity="1" id="Path" />
      <path d="M461.496 109.373C457.901 113.165 451.112 119.182 442.953 126.074C434.793 132.966 425.262 140.733 416.18 148.026C407.099 155.319 398.466 162.138 392.104 167.134C385.743 172.129 381.651 175.302 381.651 175.302C381.651 175.302 382.88 176.353 384.373 178.291C385.865 180.229 387.62 183.053 388.673 186.598C389.725 190.142 390.074 194.408 388.754 199.229C387.434 204.05 384.446 209.427 378.821 215.194C373.197 220.961 368.014 223.676 363.404 224.505C358.793 225.334 354.754 224.277 351.419 222.499C348.083 220.721 345.451 218.222 343.652 216.168C341.853 214.114 340.889 212.504 340.889 212.504C340.889 212.504 333.156 219.478 321.356 230.071C309.557 240.664 293.69 254.875 277.423 269.351C261.155 283.827 244.487 298.566 231.084 310.215C217.681 321.863 207.543 330.42 204.336 332.531C201.129 334.642 196.692 336.351 191.637 337.904C186.582 339.457 180.908 340.853 175.228 342.339C169.548 343.825 163.861 345.4 158.78 347.311C153.7 349.222 149.224 351.467 145.967 354.294C145.967 354.294 144.438 355.204 141.993 356.612C139.548 358.019 136.187 359.925 132.524 361.916C128.861 363.908 124.896 365.985 121.242 367.737C117.587 369.489 114.244 370.915 111.825 371.604C109.407 372.293 107.619 372.573 106.298 372.605C104.977 372.638 104.122 372.423 103.57 372.123C103.018 371.822 102.877 371.82 102.559 371.604C101.2 370.685 101.173 369.928 101.173 369.928L464.62 65.3449C464.62 65.3449 465.324 67.1486 466.154 70.0912C466.985 73.0337 467.943 77.1152 468.452 81.6706C468.96 86.2261 469.02 91.2556 468.052 96.0943C467.085 100.933 465.092 105.581 461.496 109.373Z" fill-rule="nonzero" transform="matrix(1, 0, 0, 1, 0, 0)" fill="#d8e01b" fill-opacity="1" stroke="#000000" stroke-width="7" stroke-linecap="round" stroke-linejoin="round" opacity="1" id="Path" />
      <path d="M308.741 205.194C308.741 205.194 273.66 245.233 268.016 251.226C262.371 257.219 254.615 265.358 246.168 273.938C237.721 282.519 228.582 291.541 220.173 299.303C211.763 307.064 204.083 313.564 198.553 317.1L153.042 338.264C153.042 338.264 289.861 193.496 294.215 188.489C297.965 184.176 308.741 205.194 308.741 205.194Z" fill-rule="nonzero" transform="matrix(1.2642685, 0.14060135, -0.14063959, 1.2646127, -24.04052, -96.68984)" fill="#3d3d38" fill-opacity="1" stroke="#d8e01b" stroke-width="1" stroke-linecap="round" stroke-linejoin="round" opacity="1" id="Path" />
      <path d="M279.999 177.153C279.999 177.153 187.679 269.263 174.15 292.296L152.514 339.704L295.622 186.989L279.999 177.153Z" fill-rule="nonzero" transform="matrix(1.2642685, 0.14060135, -0.14063959, 1.2646127, -24.04052, -96.68984)" fill="#252522" fill-opacity="1" stroke="#d8e01b" stroke-width="1" stroke-linecap="round" stroke-linejoin="round" opacity="1" id="Path" />
      <path d="M146.456 355.364C146.456 355.364 120.775 388.561 125.254 411.853C129.734 435.145 152.696 431.86 152.696 431.86C152.696 431.86 167.359 431.263 171.54 411.853C175.72 392.443 146.456 355.364 146.456 355.364Z" fill-rule="nonzero" transform="matrix(1.2642686, 0.14060134, -0.1406396, 1.2646126, -49.083557, -94.03032)" fill="#d8e01b" fill-opacity="1" stroke="#000000" stroke-width="7" stroke-linecap="round" stroke-linejoin="round" opacity="1" id="Path" />
      <path d="M152.014 363.666C152.014 363.666 143.88 373.066 139.524 389.866C135.167 406.666 134.719 421.266 140.643 428.666C146.567 436.066 166.885 431.666 171.167 413.466C175.449 395.266 152.014 363.666 152.014 363.666Z" fill-rule="nonzero" transform="matrix(1.2642686, 0.14060134, -0.1406396, 1.2646126, -49.083557, -94.03032)" fill="#adb316" fill-opacity="1" stroke="#d8e01b" stroke-width="0" stroke-linecap="round" stroke-linejoin="round" opacity="1" id="Path" />
    </g>
  </g>
</svg>