<!-- Created with PixiEditor (https://pixieditor.net) -->
<svg version="1.1" viewBox="0 0 512 512" xmlns="http://www.w3.org/2000/svg">
  <path d="" fill-rule="nonzero" transform="matrix(1, 0, 0, 1, 0, 0)" fill="#ffffff" fill-opacity="0" stroke="#000000" stroke-width="1" stroke-linecap="round" stroke-linejoin="round" opacity="1" id="Path" />
  <g opacity="1" id="ColorPicker">
    <g opacity="1" id="Logo">
      <path d="M82.2231 363.249C82.2231 363.249 79.0126 366.604 74.2484 372.296C69.4842 377.988 63.1664 386.015 56.9517 395.358C50.737 404.701 44.6256 415.359 40.2742 426.313C35.9227 437.268 33.3313 448.517 34.1568 459.042C34.9824 469.567 38.1512 477.38 42.44 483.179C46.7289 488.978 52.1378 492.763 57.4435 495.233C62.7493 497.702 67.9518 498.856 71.8279 499.392C75.704 499.929 78.2537 499.848 78.2537 499.848C78.2537 499.848 79.8637 499.962 82.4518 499.609C85.04 499.257 88.6063 498.438 92.5192 496.571C96.432 494.704 100.691 491.789 104.665 487.246C108.639 482.703 112.328 476.531 115.1 468.149C117.872 459.767 117.203 449.02 114.64 437.614C112.078 426.208 107.622 414.144 102.819 403.126C98.0165 392.109 92.8675 382.14 88.9192 374.925C84.9708 367.71 82.2231 363.249 82.2231 363.249Z" fill-rule="nonzero" transform="matrix(1, 0, 1.505014E-16, 1, -5.6929817, -3.1152954)" fill="url(#linearGradient0)" stroke="#222225" stroke-width="0" stroke-linecap="round" stroke-linejoin="round" opacity="1" id="Path" />
    </g>
  </g>
  <path d="M433.81 59.4279C395.933 21.5505 355.951 44.6978 337.013 61.5322C328.595 69.9494 322.282 80.4708 322.282 93.0966L322.282 93.0966C322.282 116.244 299.135 130.974 278.092 124.661L275.988 122.557L261.258 139.391L275.988 154.121L149.73 280.379L132.895 328.778L118.165 343.508L149.73 375.073L166.564 358.238L214.963 341.404L341.221 215.146L355.951 229.876L370.681 217.25L368.577 213.042C362.264 191.999 376.994 168.851 400.141 168.851L400.141 168.851C412.767 168.851 423.289 164.643 429.602 156.226C448.54 137.287 471.688 97.3052 433.81 59.4278L433.81 59.4279ZM200.233 324.57L158.147 339.3L153.938 341.404L156.043 337.195L170.773 295.109L292.822 173.06L324.387 204.625L200.233 324.57Z" fill-rule="nonzero" transform="matrix(1.1758883, 0, 0, 1.1758885, -27.749702, -42.80863)" fill="url(#linearGradient1)" stroke="#ffffff" stroke-width="0" stroke-linecap="butt" stroke-linejoin="miter" opacity="1" id="Path" />
  <defs>
    <linearGradient x1="0.06" y1="0.96" x2="0.76" y2="0.21" id="linearGradient0">
      <stop stop-color="#de0d3b" offset="0%" stop-opacity="1" />
      <stop stop-color="#0dde3b" offset="50%" stop-opacity="1" />
      <stop stop-color="#0a7fff" offset="100%" stop-opacity="1" />
    </linearGradient>
    <linearGradient x1="0" y1="0" x2="1" y2="0" id="linearGradient1">
      <stop stop-color="#de0d3b" offset="0%" stop-opacity="1" />
      <stop stop-color="#0dde3b" offset="50%" stop-opacity="1" />
      <stop stop-color="#0a7fff" offset="100%" stop-opacity="1" />
    </linearGradient>
  </defs>
</svg>